<svg width="24" height="24" viewBox="0 0 24 24" fill="none" xmlns="http://www.w3.org/2000/svg"><path d="M14.3294 22L10.4118 17.9936L14.3294 13.9873L15.8118 15.5573L14.4882 16.9108H17.0294C17.5411 16.9108 17.9779 16.7259 18.3397 16.3559C18.7015 15.9859 18.8824 15.5392 18.8824 15.0159C18.8824 14.4926 18.7015 14.0459 18.3397 13.676C17.9779 13.306 17.5411 13.121 17.0294 13.121H3V10.9554H17.0294C18.1412 10.9554 19.0809 11.3479 19.8485 12.133C20.6162 12.918 21 13.879 21 15.0159C21 16.1529 20.6162 17.1139 19.8485 17.8989C19.0809 18.6839 18.1412 19.0764 17.0294 19.0764H14.4882L15.8118 20.4299L14.3294 22ZM3 19.0764V16.9108H8.29412V19.0764H3ZM3 7.16561V5H19.9412V7.16561H3Z" fill="#51616C"/></svg>