<svg width="24" height="24" viewBox="0 0 24 24" fill="none" xmlns="http://www.w3.org/2000/svg"><mask id="mask0_1586_108" style="mask-type:luminance" maskUnits="userSpaceOnUse" x="3" y="3" width="18" height="18"><path d="M20.5172 3H3V20.5172H20.5172V3Z" fill="white"/></mask><g mask="url(#mask0_1586_108)"><path d="M7.50703 4.02184L8.54712 3L14.8059 9.25876C15.0856 9.53853 15.2256 9.88523 15.2256 10.2989C15.2256 10.7125 15.0856 11.0592 14.8059 11.3389L11.3389 14.8059C11.0592 15.0857 10.7125 15.2256 10.2988 15.2256C9.88522 15.2256 9.53852 15.0857 9.25876 14.8059L5.7918 11.3389C5.51202 11.0592 5.37212 10.7125 5.37212 10.2989C5.37212 9.88523 5.51202 9.53853 5.7918 9.25876L9.25876 5.77356L7.50703 4.02184ZM10.2988 6.81365L6.81364 10.2989H13.784L10.2988 6.81365ZM16.8678 15.408C16.4664 15.408 16.1227 15.2651 15.8368 14.9792C15.551 14.6933 15.408 14.3497 15.408 13.9483C15.408 13.6928 15.4841 13.4191 15.6361 13.1272C15.7882 12.8352 15.9555 12.5615 16.1379 12.306C16.2474 12.1601 16.3629 12.008 16.4846 11.8499C16.6063 11.6917 16.734 11.5397 16.8678 11.3937C17.0016 11.5397 17.1293 11.6917 17.251 11.8499C17.3727 12.008 17.4882 12.1601 17.5977 12.306C17.7802 12.5615 17.9475 12.8352 18.0995 13.1272C18.2515 13.4191 18.3276 13.6928 18.3276 13.9483C18.3276 14.3497 18.1847 14.6933 17.8988 14.9792C17.6129 15.2651 17.2692 15.408 16.8678 15.408ZM4.45976 20.5172V17.5977H19.0575V20.5172H4.45976Z" fill="#51616C"/></g></svg>