<svg width="29" height="29" viewBox="0 0 29 29" fill="none" xmlns="http://www.w3.org/2000/svg"><path d="M19.4542 16.0708L17.7021 14.3187C17.8834 13.3722 17.6115 12.4861 16.8865 11.6604C16.1615 10.8347 15.225 10.5125 14.0771 10.6937L12.325 8.94163C12.6674 8.78052 13.0148 8.65969 13.3672 8.57913C13.7197 8.49858 14.0973 8.4583 14.5 8.4583C16.0105 8.4583 17.2943 8.98695 18.3516 10.0442C19.4089 11.1015 19.9375 12.3854 19.9375 13.8958C19.9375 14.2986 19.8973 14.6762 19.8167 15.0286C19.7362 15.381 19.6153 15.7284 19.4542 16.0708ZM23.3209 19.8771L21.5688 18.1854C22.3341 17.6014 23.0138 16.9619 23.6079 16.2672C24.202 15.5724 24.7105 14.7819 25.1334 13.8958C24.1264 11.8618 22.6815 10.2456 20.7985 9.04736C18.9155 7.8491 16.816 7.24997 14.5 7.24997C13.916 7.24997 13.3421 7.29025 12.7782 7.3708C12.2143 7.45136 11.6605 7.57219 11.1167 7.7333L9.24379 5.86038C10.0695 5.51802 10.9153 5.26125 11.7813 5.09007C12.6473 4.91889 13.5535 4.8333 14.5 4.8333C17.541 4.8333 20.2497 5.6741 22.6261 7.3557C25.0025 9.03729 26.7243 11.2173 27.7917 13.8958C27.3285 15.084 26.7193 16.1866 25.9641 17.2036C25.2089 18.2206 24.3278 19.1118 23.3209 19.8771ZM23.925 27.3083L18.85 22.2937C18.1452 22.5152 17.4353 22.6814 16.7204 22.7922C16.0054 22.9029 15.2653 22.9583 14.5 22.9583C11.4591 22.9583 8.75039 22.1175 6.374 20.4359C3.99761 18.7543 2.27574 16.5743 1.20837 13.8958C1.63129 12.8284 2.16497 11.8366 2.80942 10.9203C3.45386 10.004 4.18893 9.1833 5.01462 8.4583L1.69171 5.07497L3.38337 3.3833L25.6167 25.6166L23.925 27.3083ZM6.70629 10.15C6.12226 10.6736 5.58858 11.2475 5.10525 11.8718C4.62192 12.4961 4.20907 13.1708 3.86671 13.8958C4.87365 15.9298 6.31862 17.546 8.2016 18.7442C10.0846 19.9425 12.1841 20.5416 14.5 20.5416C14.9028 20.5416 15.2955 20.5165 15.6782 20.4661C16.0608 20.4158 16.4535 20.3604 16.8563 20.3L15.7688 19.1521C15.5473 19.2125 15.3358 19.2578 15.1344 19.288C14.933 19.3182 14.7216 19.3333 14.5 19.3333C12.9896 19.3333 11.7058 18.8047 10.6485 17.7474C9.59119 16.6901 9.06254 15.4062 9.06254 13.8958C9.06254 13.6743 9.07765 13.4628 9.10785 13.2614C9.13806 13.06 9.18337 12.8486 9.24379 12.6271L6.70629 10.15Z" fill="#5F6368"/></svg> 