<svg width="24" height="24" viewBox="0 0 24 24" fill="none" xmlns="http://www.w3.org/2000/svg"><path d="M10.5 5.25C10.5 4.65326 10.737 4.08096 11.159 3.65901C11.581 3.23705 12.1533 3 12.75 3H18.75C19.3467 3 19.919 3.23705 20.341 3.65901C20.7629 4.08096 21 4.65326 21 5.25C21 5.84674 20.7629 6.41904 20.341 6.84099C19.919 7.26295 19.3467 7.5 18.75 7.5H12.75C12.1533 7.5 11.581 7.26295 11.159 6.84099C10.737 6.41904 10.5 5.84674 10.5 5.25ZM3 18.75C3 18.1533 3.23705 17.581 3.65901 17.159C4.08096 16.7371 4.65326 16.5 5.25 16.5H11.25C11.8467 16.5 12.419 16.7371 12.841 17.159C13.263 17.581 13.5 18.1533 13.5 18.75C13.5 19.3467 13.263 19.919 12.841 20.341C12.419 20.7629 11.8467 21 11.25 21H5.25C4.65326 21 4.08096 20.7629 3.65901 20.341C3.23705 19.919 3 19.3467 3 18.75ZM5.25 9.75C4.65326 9.75 4.08096 9.98705 3.65901 10.409C3.23705 10.831 3 11.4033 3 12C3 12.5967 3.23705 13.169 3.65901 13.591C4.08096 14.0129 4.65326 14.25 5.25 14.25H18.75C19.3467 14.25 19.919 14.0129 20.341 13.591C20.7629 13.169 21 12.5967 21 12C21 11.4033 20.7629 10.831 20.341 10.409C19.919 9.98705 19.3467 9.75 18.75 9.75H5.25Z" fill="#51616C"/><path d="M12.5 0H11.5V24H12.5V0Z" fill="#E22E2E"/></svg>