<svg width="24" height="24" viewBox="0 0 24 24" fill="none" xmlns="http://www.w3.org/2000/svg"><path d="M14.7 7.94995C14.342 7.94995 13.9986 8.09218 13.7454 8.34536C13.4922 8.59853 13.35 8.94191 13.35 9.29995C13.35 9.65799 13.4922 10.0014 13.7454 10.2545C13.9986 10.5077 14.342 10.65 14.7 10.65C15.058 10.65 15.4014 10.5077 15.6546 10.2545C15.9078 10.0014 16.05 9.65799 16.05 9.29995C16.05 8.94191 15.9078 8.59853 15.6546 8.34536C15.4014 8.09218 15.058 7.94995 14.7 7.94995ZM9.3 7.94995C8.94195 7.94995 8.59858 8.09218 8.3454 8.34536C8.09223 8.59853 7.95 8.94191 7.95 9.29995C7.95 9.65799 8.09223 10.0014 8.3454 10.2545C8.59858 10.5077 8.94195 10.65 9.3 10.65C9.65804 10.65 10.0014 10.5077 10.2546 10.2545C10.5078 10.0014 10.65 9.65799 10.65 9.29995C10.65 8.94191 10.5078 8.59853 10.2546 8.34536C10.0014 8.09218 9.65804 7.94995 9.3 7.94995Z" fill="#51616C"/><path fill-rule="evenodd" clip-rule="evenodd" d="M12 2.1001C9.37436 2.1001 6.85626 3.14313 4.99965 4.99974C3.14304 6.85635 2.10001 9.37445 2.10001 12.0001C2.10001 14.6257 3.14304 17.1438 4.99965 19.0005C6.85626 20.8571 9.37436 21.9001 12 21.9001C14.6256 21.9001 17.1438 20.8571 19.0004 19.0005C20.857 17.1438 21.9 14.6257 21.9 12.0001C21.9 9.37445 20.857 6.85635 19.0004 4.99974C17.1438 3.14313 14.6256 2.1001 12 2.1001ZM12 3.9001C9.85175 3.9001 7.79149 4.75349 6.27244 6.27253C4.7534 7.79158 3.90001 9.85184 3.90001 12.0001C3.90001 14.1484 4.7534 16.2086 6.27244 17.7277C7.79149 19.2467 9.85175 20.1001 12 20.1001C14.1483 20.1001 16.2085 19.2467 17.7276 17.7277C19.2466 16.2086 20.1 14.1484 20.1 12.0001C20.1 9.85184 19.2466 7.79158 17.7276 6.27253C16.2085 4.75349 14.1483 3.9001 12 3.9001Z" fill="#51616C"/><path d="M9.8856 13.9717C9.67451 13.8181 9.47735 13.6463 9.2964 13.4581L9.1176 13.2565C8.9739 13.0659 8.76037 12.9401 8.52396 12.9069C8.28755 12.8737 8.04764 12.9358 7.857 13.0795C7.66636 13.2232 7.54061 13.4368 7.50742 13.6732C7.47423 13.9096 7.5363 14.1495 7.68 14.3401L7.7736 14.4565C8.08637 14.8198 8.43989 15.146 8.8272 15.4285C9.5448 15.9505 10.6272 16.5001 12 16.5001C13.3728 16.5001 14.4552 15.9505 15.1728 15.4285C15.5605 15.1461 15.9145 14.8199 16.2276 14.4565L16.32 14.3401C16.3911 14.2457 16.443 14.1382 16.4726 14.0238C16.5022 13.9094 16.509 13.7902 16.4926 13.6732C16.4761 13.5561 16.4368 13.4434 16.3768 13.3416C16.3168 13.2397 16.2374 13.1507 16.143 13.0795C16.0486 13.0084 15.9411 12.9565 15.8267 12.9269C15.7122 12.8973 15.5931 12.8905 15.476 12.9069C15.359 12.9234 15.2463 12.9627 15.1445 13.0227C15.0426 13.0827 14.9535 13.1621 14.8824 13.2565L14.7036 13.4581C14.5716 13.5973 14.3724 13.7845 14.1144 13.9717C13.5948 14.3497 12.8772 14.7001 12 14.7001C11.124 14.7001 10.404 14.3497 9.8856 13.9717Z" fill="#51616C"/></svg>