<svg width="24" height="24" viewBox="0 0 24 24" fill="none" xmlns="http://www.w3.org/2000/svg"><path d="M20.45 23.3L17.15 20H3.99999C3.44999 20 2.97916 19.8041 2.58749 19.4125C2.19583 19.0208 1.99999 18.55 1.99999 18V5.99995C1.99999 5.44995 2.19583 4.97912 2.58749 4.58745C2.97916 4.19578 3.44999 3.99995 3.99999 3.99995V6.84995L0.649994 3.49995L2.07499 2.07495L21.875 21.875L20.45 23.3ZM3.99999 18H15.15L5.14999 7.99995H3.99999V18ZM21.775 18.925L20 17.15V7.99995H10.85L6.84999 3.99995H20C20.55 3.99995 21.0208 4.19578 21.4125 4.58745C21.8042 4.97912 22 5.44995 22 5.99995V18C22 18.1666 21.9833 18.3291 21.95 18.4875C21.9167 18.6458 21.8583 18.7916 21.775 18.925ZM18 15.15L16.5 13.65V11.5H14.35L12.85 9.99995H18V15.15Z" fill="#51616C"/></svg> 